<?xml version="1.0" encoding="UTF-8" standalone="no"?>
<svg
   role="img"
   viewBox="0 0 24 24"
   version="1.1"
   id="svg1"
   sodipodi:docname="gatsby.svg"
   inkscape:version="1.3 (0e150ed6c4, 2023-07-21)"
   xmlns:inkscape="http://www.inkscape.org/namespaces/inkscape"
   xmlns:sodipodi="http://sodipodi.sourceforge.net/DTD/sodipodi-0.dtd"
   xmlns="http://www.w3.org/2000/svg"
   xmlns:svg="http://www.w3.org/2000/svg">
  <defs
     id="defs1" />
  <sodipodi:namedview
     id="namedview1"
     pagecolor="#505050"
     bordercolor="#ffffff"
     borderopacity="1"
     inkscape:showpageshadow="0"
     inkscape:pageopacity="0"
     inkscape:pagecheckerboard="1"
     inkscape:deskcolor="#505050"
     showgrid="false"
     inkscape:zoom="46.708333"
     inkscape:cx="12"
     inkscape:cy="12"
     inkscape:window-width="2256"
     inkscape:window-height="1398"
     inkscape:window-x="-11"
     inkscape:window-y="-11"
     inkscape:window-maximized="1"
     inkscape:current-layer="svg1" />
  <title
     id="title1">Gatsby</title>
  <path
     d="M12 0C5.4 0 0 5.4 0 12s5.4 12 12 12 12-5.4 12-12S18.6 0 12 0zm0 2.571c3.171 0 5.915 1.543 7.629 3.858l-1.286 1.115C16.886 5.572 14.571 4.286 12 4.286c-3.343 0-6.171 2.143-7.286 5.143l9.857 9.857c2.486-.857 4.373-3 4.973-5.572h-4.115V12h6c0 4.457-3.172 8.228-7.372 9.17L2.83 9.944C3.772 5.743 7.543 2.57 12 2.57zm-9.429 9.6l9.344 9.258c-2.4-.086-4.801-.943-6.601-2.743-1.8-1.8-2.743-4.201-2.743-6.515z"
     id="path1"
     style="fill:#663399;fill-opacity:1" />
</svg>
